<svg preserveAspectRatio="none" width="100%" height="100%" overflow="visible" style="display: block;" viewBox="0 0 16.2 18.6667" fill="none" xmlns="http://www.w3.org/2000/svg">
<path id="icon" d="M13.1667 18.6667C12.4778 18.6667 11.8889 18.4333 11.4 17.9667C10.9333 17.4778 10.7 16.9 10.7 16.2333V2.43333C10.7 1.76667 10.9333 1.2 11.4 0.733334C11.8889 0.244445 12.4778 0 13.1667 0H13.7667C14.4333 0 15 0.244445 15.4667 0.733334C15.9556 1.2 16.2 1.76667 16.2 2.43333V16.2333C16.2 16.9 15.9556 17.4778 15.4667 17.9667C15 18.4333 14.4333 18.6667 13.7667 18.6667H13.1667ZM2.43333 18.6667C1.76667 18.6667 1.18889 18.4333 0.7 17.9667C0.233333 17.4778 0 16.9 0 16.2333V2.43333C0 1.76667 0.233333 1.2 0.7 0.733334C1.18889 0.244445 1.76667 0 2.43333 0H3.03333C3.72222 0 4.3 0.244445 4.76667 0.733334C5.25556 1.2 5.5 1.76667 5.5 2.43333V16.2333C5.5 16.9 5.25556 17.4778 4.76667 17.9667C4.3 18.4333 3.72222 18.6667 3.03333 18.6667H2.43333Z" fill="var(--fill-0, #37005F)"/>
</svg>
