<svg preserveAspectRatio="none" width="100%" height="100%" overflow="visible" style="display: block;" viewBox="0 0 7.00202 9.91818" fill="none" xmlns="http://www.w3.org/2000/svg">
<path id="icon" d="M2.0605 6.4375H0.5105C0.3105 6.4375 0.1605 6.35 0.0605 6.175C-0.0311667 5.99167 -0.0186666 5.81667 0.0980001 5.65L3.8355 0.275C3.91883 0.158333 4.02717 0.0791667 4.1605 0.0375001C4.29383 -0.0125 4.43133 -0.0125 4.573 0.0375001C4.71467 0.0874999 4.81883 0.175 4.8855 0.3C4.95217 0.425 4.97717 0.558333 4.9605 0.7L4.5605 3.9375H6.498C6.71467 3.9375 6.86467 4.03333 6.948 4.225C7.03967 4.41667 7.01467 4.59583 6.873 4.7625L2.7605 9.6875C2.66883 9.79583 2.55633 9.86667 2.423 9.9C2.28967 9.93333 2.1605 9.92083 2.0355 9.8625C1.9105 9.80417 1.8105 9.71667 1.7355 9.6C1.66883 9.475 1.64383 9.34167 1.6605 9.2L2.0605 6.4375Z" fill="var(--fill-0, #37005F)"/>
</svg>
