<svg preserveAspectRatio="none" width="100%" height="100%" overflow="visible" style="display: block;" viewBox="0 0 13 12" fill="none" xmlns="http://www.w3.org/2000/svg">
<path id="icon" d="M0 11V1C0 0.716667 0.0916667 0.483334 0.275 0.300001C0.475 0.1 0.716667 0 1 0C1.28333 0 1.51667 0.1 1.7 0.300001C1.9 0.483334 2 0.716667 2 1V11C2 11.2833 1.9 11.525 1.7 11.725C1.51667 11.9083 1.28333 12 1 12C0.716667 12 0.475 11.9083 0.275 11.725C0.0916667 11.525 0 11.2833 0 11ZM11.45 10.975L5.25 6.825C5.1 6.725 4.98333 6.60833 4.9 6.475C4.83333 6.325 4.8 6.16667 4.8 6C4.8 5.83333 4.83333 5.68333 4.9 5.55C4.98333 5.4 5.1 5.275 5.25 5.175L11.45 1.025C11.5333 0.958333 11.625 0.916667 11.725 0.900001C11.825 0.883334 11.9167 0.875001 12 0.875001C12.2667 0.875001 12.5 0.966668 12.7 1.15C12.9 1.33333 13 1.575 13 1.875V10.125C13 10.425 12.9 10.6667 12.7 10.85C12.5 11.0333 12.2667 11.125 12 11.125C11.9167 11.125 11.825 11.1167 11.725 11.1C11.625 11.0833 11.5333 11.0417 11.45 10.975ZM11 8.25V3.75L7.6 6L11 8.25Z" fill="var(--fill-0, #37005F)"/>
</svg>
