<svg preserveAspectRatio="none" width="100%" height="100%" overflow="visible" style="display: block;" viewBox="0 0 61.4049 63.7383" fill="none" xmlns="http://www.w3.org/2000/svg">
<path id="Shape" d="M25.1401 2.2502C28.2415 -0.750069 33.1635 -0.750067 36.2648 2.2502L36.5443 2.52055C38.3178 4.23623 40.7838 5.03749 43.227 4.6919L43.612 4.63745C47.8846 4.03312 51.8666 6.92619 52.6121 11.1764L52.6793 11.5594C53.1056 13.9898 54.6297 16.0875 56.8094 17.2441L57.1529 17.4263C60.9647 19.4487 62.4857 24.1298 60.5906 28.0065L60.4199 28.3558C59.3362 30.5727 59.3362 33.1656 60.4199 35.3825L60.5906 35.7318C62.4857 39.6085 60.9647 44.2896 57.1529 46.3121L56.8094 46.4943C54.6297 47.6508 53.1056 49.7485 52.6793 52.179L52.6121 52.5619C51.8666 56.8122 47.8846 59.7052 43.612 59.1009L43.227 59.0464C40.7838 58.7009 38.3178 59.5021 36.5443 61.2178L36.2648 61.4881C33.1634 64.4884 28.2415 64.4884 25.1401 61.4881L24.8607 61.2178C23.0872 59.5021 20.6211 58.7009 18.1779 59.0464L17.7929 59.1009C13.5203 59.7052 9.53838 56.8122 8.79283 52.5619L8.72565 52.179C8.29932 49.7485 6.77524 47.6508 4.59548 46.4943L4.25202 46.3121C0.440213 44.2896 -1.08076 39.6085 0.814293 35.7318L0.985045 35.3825C2.06872 33.1656 2.06872 30.5727 0.985044 28.3558L0.814291 28.0065C-1.08076 24.1298 0.440215 19.4487 4.25202 17.4263L4.59548 17.2441C6.77524 16.0875 8.29932 13.9898 8.72565 11.5594L8.79283 11.1764C9.53838 6.92618 13.5203 4.03312 17.7929 4.63745L18.1779 4.6919C20.6211 5.03749 23.0872 4.23623 24.8607 2.52054L25.1401 2.2502Z" fill="var(--fill-0, #E4C2FF)"/>
</svg>
