<svg preserveAspectRatio="none" width="100%" height="100%" overflow="visible" style="display: block;" viewBox="0 0 4 16" fill="none" xmlns="http://www.w3.org/2000/svg">
<path id="icon" d="M2 16C1.45 16 0.975001 15.8083 0.575001 15.425C0.191668 15.025 0 14.55 0 14C0 13.45 0.191668 12.9833 0.575001 12.6C0.975001 12.2 1.45 12 2 12C2.55 12 3.01667 12.2 3.4 12.6C3.8 12.9833 4 13.45 4 14C4 14.55 3.8 15.025 3.4 15.425C3.01667 15.8083 2.55 16 2 16ZM2 10C1.45 10 0.975001 9.80833 0.575001 9.425C0.191668 9.025 0 8.55 0 8C0 7.45 0.191668 6.98333 0.575001 6.6C0.975001 6.2 1.45 6 2 6C2.55 6 3.01667 6.2 3.4 6.6C3.8 6.98333 4 7.45 4 8C4 8.55 3.8 9.025 3.4 9.425C3.01667 9.80833 2.55 10 2 10ZM2 4C1.45 4 0.975001 3.80833 0.575001 3.425C0.191668 3.025 0 2.55 0 2C0 1.45 0.191668 0.983334 0.575001 0.599999C0.975001 0.2 1.45 0 2 0C2.55 0 3.01667 0.2 3.4 0.599999C3.8 0.983334 4 1.45 4 2C4 2.55 3.8 3.025 3.4 3.425C3.01667 3.80833 2.55 4 2 4Z" fill="var(--fill-0, #F4E1FE)"/>
</svg>
