<svg preserveAspectRatio="none" width="100%" height="100%" overflow="visible" style="display: block;" viewBox="0 0 19 14" fill="none" xmlns="http://www.w3.org/2000/svg">
<path id="icon" d="M13 14C12.1667 14 11.4583 13.7083 10.875 13.125C10.2917 12.5417 10 11.8333 10 11C10 10.1667 10.2917 9.45833 10.875 8.875C11.4583 8.29167 12.1667 8 13 8C13.1833 8 13.3583 8.01667 13.525 8.05C13.6917 8.06667 13.85 8.11667 14 8.2V1C14 0.716667 14.0917 0.483334 14.275 0.300001C14.475 0.1 14.7167 0 15 0H18C18.2833 0 18.5167 0.1 18.7 0.300001C18.9 0.483334 19 0.716667 19 1C19 1.28333 18.9 1.525 18.7 1.725C18.5167 1.90833 18.2833 2 18 2H16V11C16 11.8333 15.7083 12.5417 15.125 13.125C14.5417 13.7083 13.8333 14 13 14ZM1 10C0.716667 10 0.475 9.90833 0.275 9.725C0.0916667 9.525 0 9.28333 0 9C0 8.71667 0.0916667 8.48333 0.275 8.3C0.475 8.1 0.716667 8 1 8H7C7.28333 8 7.51667 8.1 7.7 8.3C7.9 8.48333 8 8.71667 8 9C8 9.28333 7.9 9.525 7.7 9.725C7.51667 9.90833 7.28333 10 7 10H1ZM1 6C0.716667 6 0.475 5.90834 0.275 5.725C0.0916667 5.525 0 5.28333 0 5C0 4.71667 0.0916667 4.48333 0.275 4.3C0.475 4.1 0.716667 4 1 4H11C11.2833 4 11.5167 4.1 11.7 4.3C11.9 4.48333 12 4.71667 12 5C12 5.28333 11.9 5.525 11.7 5.725C11.5167 5.90834 11.2833 6 11 6H1ZM1 2C0.716667 2 0.475 1.90833 0.275 1.725C0.0916667 1.525 0 1.28333 0 1C0 0.716667 0.0916667 0.483334 0.275 0.300001C0.475 0.1 0.716667 0 1 0H11C11.2833 0 11.5167 0.1 11.7 0.300001C11.9 0.483334 12 0.716667 12 1C12 1.28333 11.9 1.525 11.7 1.725C11.5167 1.90833 11.2833 2 11 2H1Z" fill="var(--fill-0, #F4E1FE)"/>
</svg>
