<svg preserveAspectRatio="none" width="100%" height="100%" overflow="visible" style="display: block;" viewBox="0 0 24.3334 15.7294" fill="none" xmlns="http://www.w3.org/2000/svg">
<path id="Base" d="M20.6138 0.571805C21.5437 -0.236071 22.9816 -0.216709 23.6553 0.814637C23.9511 1.2675 24.1778 1.77645 24.3169 2.33059C24.3816 2.58814 24.2495 2.84806 24.0273 2.99345C23.7538 3.17239 23.4897 3.37172 23.2369 3.59134C20.1163 6.30215 16.0286 7.62993 11.9107 7.27102C8.31177 6.95739 5.03126 9.34122 4.21732 12.8609C4.12064 13.279 4.00657 13.6911 3.8759 14.0964C3.39637 15.5835 1.63839 16.3138 0.578649 15.1656C0.538065 15.1216 0.498449 15.0771 0.459795 15.032C-0.126881 14.3483 -0.0698392 13.3786 0.177281 12.5122L0.31986 11.9605C1.58261 6.49867 6.67363 2.7998 12.2583 3.28665C15.1063 3.53482 17.9342 2.68852 20.1734 0.93411L20.6138 0.571805Z" fill="var(--fill-0, #2D2136)"/>
</svg>
