<svg preserveAspectRatio="none" width="100%" height="100%" overflow="visible" style="display: block;" viewBox="0 0 9.8 9.07869" fill="none" xmlns="http://www.w3.org/2000/svg">
<path id="icon" d="M8.75 4.53205C8.75 3.77372 8.54097 3.08344 8.12292 2.46122C7.70486 1.82927 7.15556 1.35775 6.475 1.04663C6.33889 0.978579 6.23681 0.881357 6.16875 0.754968C6.1007 0.618857 6.09583 0.482746 6.15417 0.346634C6.2125 0.200801 6.31458 0.0987178 6.46042 0.0403848C6.61597 -0.0179487 6.76667 -0.0130877 6.9125 0.0549679C7.79722 0.443857 8.49722 1.04663 9.0125 1.8633C9.5375 2.67025 9.8 3.56469 9.8 4.54664C9.8 5.52858 9.5375 6.42302 9.0125 7.22997C8.49722 8.03691 7.79722 8.63483 6.9125 9.02372C6.76667 9.09177 6.61597 9.09664 6.46042 9.0383C6.31458 8.97997 6.2125 8.87788 6.15417 8.73205C6.09583 8.59594 6.1007 8.46469 6.16875 8.3383C6.23681 8.20219 6.33889 8.10011 6.475 8.03205C7.15556 7.72094 7.70486 7.25427 8.12292 6.63205C8.54097 6.00011 8.75 5.30011 8.75 4.53205ZM2.1 5.94663H0.525C0.379167 5.94663 0.252778 5.89802 0.145833 5.8008C0.0486111 5.69386 0 5.56747 0 5.42164V3.67164C0 3.5258 0.0486111 3.40427 0.145833 3.30705C0.252778 3.20011 0.379167 3.14663 0.525 3.14663H2.1L4.01042 1.23622C4.17569 1.07094 4.36528 1.03691 4.57917 1.13413C4.79306 1.22163 4.9 1.38205 4.9 1.61539V7.47789C4.9 7.71122 4.79306 7.8765 4.57917 7.97372C4.36528 8.06122 4.17569 8.02233 4.01042 7.85705L2.1 5.94663ZM7.35 4.54664C7.35 4.90636 7.2625 5.2758 7.0875 5.65497C6.9125 6.03414 6.66458 6.32094 6.34375 6.51539C6.25625 6.564 6.16875 6.56886 6.08125 6.52997C5.99375 6.48136 5.95 6.40358 5.95 6.29664V2.79663C5.95 2.68969 5.99375 2.61677 6.08125 2.57788C6.16875 2.52927 6.25625 2.52927 6.34375 2.57788C6.66458 2.76261 6.9125 3.04941 7.0875 3.4383C7.2625 3.81747 7.35 4.18691 7.35 4.54664Z" fill="var(--fill-0, #37005F)"/>
</svg>
