<svg preserveAspectRatio="none" width="100%" height="100%" overflow="visible" style="display: block;" viewBox="0 0 76.5814 79.1179" fill="none" xmlns="http://www.w3.org/2000/svg">
<path id="Progress" d="M39.3489 0.249827C39.8274 -0.018619 40.3893 -0.0575661 40.9229 0.0703541C42.6316 0.479969 44.2643 1.29344 45.6693 2.514C47.8275 4.38873 50.6127 5.36727 53.4554 5.264L54.0248 5.22885C59.6092 4.74236 64.7005 8.44113 65.9632 13.9027C66.6502 16.8737 68.514 19.4387 71.1273 21.0101C75.931 23.8989 77.8753 29.8837 75.6869 35.0443C74.4963 37.8516 74.4964 41.0221 75.6869 43.8294C77.8756 48.9901 75.9311 54.9757 71.1273 57.8646L70.6459 58.1703C68.2852 59.7577 66.6073 62.1866 65.9632 64.972L65.8334 65.4788C64.4282 70.4937 59.7498 73.8924 54.5462 73.679L54.0248 73.6458C50.987 73.381 47.9713 74.361 45.6693 76.3607L45.266 76.6947C41.1816 79.9256 35.3991 79.9257 31.3148 76.6947L30.9125 76.3607C28.6105 74.3609 25.5948 73.3812 22.557 73.6458L22.0345 73.679C16.8311 73.8923 12.1535 70.4936 10.7484 65.4788L10.6185 64.972C9.97454 62.1867 8.29639 59.7577 5.9359 58.1703L5.45445 57.8646C0.800206 55.0661 -1.17001 49.3617 0.701521 44.3158L0.89488 43.8294C2.0108 41.1976 2.08058 38.2462 1.10386 35.5746L0.89488 35.0443C-1.22548 30.0447 0.532378 24.2716 5.01207 21.2894L5.45445 21.0101C5.51616 20.973 5.57742 20.9353 5.63822 20.897C6.52389 20.3395 7.57765 19.9172 8.52965 20.3519C9.93512 20.9936 9.78799 22.8697 8.53212 23.7697C8.20371 24.005 7.86484 24.228 7.51597 24.4378C4.41982 26.2995 3.16599 30.1568 4.57652 33.4828C6.19046 37.2883 6.19037 41.5864 4.57652 45.3919C3.16617 48.7179 4.41991 52.5752 7.51597 54.4369C11.0582 56.567 13.5848 60.0435 14.516 64.0706C15.3298 67.5905 18.6103 69.9742 22.2093 69.6605C26.3273 69.3016 30.415 70.6303 33.5355 73.3412C36.2628 75.7103 40.319 75.7104 43.0462 73.3412C46.1667 70.6306 50.2537 69.3017 54.3714 69.6605C57.9704 69.974 61.252 67.5904 62.0658 64.0706C62.997 60.0435 65.5234 56.5669 69.0658 54.4369C72.1616 52.5751 73.4147 48.7178 72.0043 45.3919C70.3903 41.5864 70.3903 37.2883 72.0043 33.4828C73.4146 30.1569 72.1617 26.2995 69.0658 24.4378C65.5232 22.3077 62.9969 18.8305 62.0658 14.8031C61.2519 11.2835 57.9702 8.89973 54.3714 9.21322C50.2537 9.57207 46.1667 8.24414 43.0462 5.53353C42.515 5.07203 41.9334 4.70056 41.3209 4.41903C39.2904 3.48566 37.3998 1.34313 39.3489 0.249827Z" fill="var(--fill-0, #EDD9F9)"/>
</svg>
