<svg preserveAspectRatio="none" width="100%" height="100%" overflow="visible" style="display: block;" viewBox="0 0 13 12" fill="none" xmlns="http://www.w3.org/2000/svg">
<path id="icon" d="M11 11V1C11 0.716667 11.0917 0.483334 11.275 0.300001C11.475 0.1 11.7167 0 12 0C12.2833 0 12.5167 0.1 12.7 0.300001C12.9 0.483334 13 0.716667 13 1V11C13 11.2833 12.9 11.525 12.7 11.725C12.5167 11.9083 12.2833 12 12 12C11.7167 12 11.475 11.9083 11.275 11.725C11.0917 11.525 11 11.2833 11 11ZM0 10.125V1.875C0 1.575 0.1 1.33333 0.3 1.15C0.5 0.966668 0.733334 0.875001 1 0.875001C1.08333 0.875001 1.175 0.883334 1.275 0.900001C1.375 0.916667 1.46667 0.958333 1.55 1.025L7.75 5.175C7.9 5.275 8.00833 5.4 8.075 5.55C8.15833 5.68333 8.2 5.83333 8.2 6C8.2 6.16667 8.15833 6.325 8.075 6.475C8.00833 6.60833 7.9 6.725 7.75 6.825L1.55 10.975C1.46667 11.0417 1.375 11.0833 1.275 11.1C1.175 11.1167 1.08333 11.125 1 11.125C0.733334 11.125 0.5 11.0333 0.3 10.85C0.1 10.6667 0 10.425 0 10.125ZM2 8.25L5.4 6L2 3.75V8.25Z" fill="var(--fill-0, #37005F)"/>
</svg>
