<svg preserveAspectRatio="none" width="100%" height="100%" overflow="visible" style="display: block;" viewBox="0 0 18 18" fill="none" xmlns="http://www.w3.org/2000/svg">
<path id="icon" d="M4 18H2C1.45 18 0.975 17.8083 0.575 17.425C0.191667 17.025 0 16.55 0 16V9C0 7.75 0.233333 6.58333 0.7 5.5C1.18333 4.4 1.825 3.45 2.625 2.65C3.44167 1.83333 4.39167 1.19167 5.475 0.725C6.575 0.241667 7.75 0 9 0C10.25 0 11.4167 0.241667 12.5 0.725C13.6 1.19167 14.55 1.83333 15.35 2.65C16.1667 3.45 16.8083 4.4 17.275 5.5C17.7583 6.58333 18 7.75 18 9V16C18 16.55 17.8 17.025 17.4 17.425C17.0167 17.8083 16.55 18 16 18H14C13.45 18 12.975 17.8083 12.575 17.425C12.1917 17.025 12 16.55 12 16V12C12 11.45 12.1917 10.9833 12.575 10.6C12.975 10.2 13.45 10 14 10H16V9C16 7.05 15.3167 5.4 13.95 4.05C12.6 2.68333 10.95 2 9 2C7.05 2 5.39167 2.68333 4.025 4.05C2.675 5.4 2 7.05 2 9V10H4C4.55 10 5.01667 10.2 5.4 10.6C5.8 10.9833 6 11.45 6 12V16C6 16.55 5.8 17.025 5.4 17.425C5.01667 17.8083 4.55 18 4 18ZM4 12H2V16H4V12ZM14 12V16H16V12H14ZM4 12H2H4ZM14 12H16H14Z" fill="var(--fill-0, #F4E1FE)"/>
</svg>
